<?xml version="1.0" encoding="UTF-8"?>
<svg xmlns="http://www.w3.org/2000/svg" xmlns:xlink="http://www.w3.org/1999/xlink" width="390" height="152" viewBox="175 222 390 152">
<path fill-rule="nonzero" fill="rgb(0%, 0%, 0%)" fill-opacity="1" d="M 336.765625 230.8125 C 337.027344 230.292969 337.480469 229.839844 337.9375 229.839844 L 341.574219 229.839844 C 342.03125 229.839844 342.355469 230.230469 342.355469 230.75 L 342.355469 274.496094 C 342.355469 275.015625 342.03125 275.339844 341.574219 275.339844 L 337.414062 275.339844 C 336.960938 275.339844 336.636719 275.015625 336.636719 274.496094 L 336.636719 242.839844 L 321.683594 274.496094 C 321.359375 275.082031 321.035156 275.339844 320.644531 275.339844 L 320.125 275.339844 C 319.671875 275.339844 319.34375 275.082031 319.019531 274.496094 L 304.070312 242.839844 L 304.070312 274.496094 C 304.070312 275.015625 303.742188 275.339844 303.289062 275.339844 L 299.128906 275.339844 C 298.609375 275.339844 298.347656 275.015625 298.347656 274.496094 L 298.347656 230.75 C 298.347656 230.230469 298.738281 229.839844 299.257812 229.839844 L 302.898438 229.839844 C 303.355469 229.839844 303.808594 230.292969 304.070312 230.8125 L 320.320312 265.65625 Z M 336.765625 230.8125 "/>
<path fill-rule="nonzero" fill="rgb(0%, 0%, 0%)" fill-opacity="1" d="M 389.804688 252.65625 C 389.804688 243.230469 383.242188 234.519531 373.035156 234.519531 C 362.894531 234.519531 356.265625 243.164062 356.265625 252.65625 C 356.265625 262.144531 362.894531 270.726562 373.035156 270.726562 C 383.242188 270.726562 389.804688 262.082031 389.804688 252.65625 M 350.480469 252.65625 C 350.480469 239.785156 360.230469 229.320312 373.101562 229.320312 C 385.90625 229.320312 395.589844 239.785156 395.589844 252.65625 C 395.589844 265.460938 385.90625 275.859375 373.101562 275.859375 C 360.230469 275.859375 350.480469 265.460938 350.480469 252.65625 "/>
<path fill-rule="nonzero" fill="rgb(0%, 0%, 0%)" fill-opacity="1" d="M 432.574219 252.65625 C 432.574219 241.410156 428.285156 234.972656 418.792969 234.972656 L 409.433594 234.972656 L 409.433594 270.207031 L 418.792969 270.207031 C 428.285156 270.207031 432.574219 263.769531 432.574219 252.65625 M 419.117188 275.339844 L 404.625 275.339844 C 404.167969 275.339844 403.714844 274.949219 403.714844 274.429688 L 403.714844 230.75 C 403.714844 230.230469 404.167969 229.839844 404.625 229.839844 L 419.378906 229.839844 C 431.339844 229.90625 438.359375 237.703125 438.359375 252.65625 C 438.359375 267.347656 431.339844 275.277344 419.117188 275.339844 "/>
<path fill-rule="nonzero" fill="rgb(0%, 0%, 0%)" fill-opacity="1" d="M 473.914062 271.117188 L 473.914062 274.429688 C 473.914062 274.949219 473.457031 275.339844 473.003906 275.339844 L 447.390625 275.339844 C 446.9375 275.339844 446.480469 274.949219 446.480469 274.429688 L 446.480469 230.75 C 446.480469 230.230469 446.9375 229.839844 447.390625 229.839844 L 473.070312 229.839844 C 473.523438 229.839844 473.914062 230.230469 473.914062 230.75 L 473.914062 234.066406 C 473.914062 234.585938 473.523438 234.972656 473.070312 234.972656 L 452.203125 234.972656 L 452.203125 249.988281 L 466.503906 249.988281 C 466.957031 249.988281 467.414062 250.378906 467.414062 250.835938 L 467.414062 254.28125 C 467.414062 254.800781 466.957031 255.125 466.503906 255.125 L 452.203125 255.125 L 452.203125 270.207031 L 473.003906 270.207031 C 473.457031 270.207031 473.914062 270.59375 473.914062 271.117188 "/>
<path fill-rule="nonzero" fill="rgb(0%, 0%, 0%)" fill-opacity="1" d="M 488.210938 253.628906 L 498.742188 253.628906 C 503.941406 253.628906 507.128906 250.769531 507.128906 244.335938 C 507.128906 237.898438 503.941406 234.972656 499.195312 234.972656 L 488.210938 234.972656 Z M 512.585938 275.339844 L 508.363281 275.339844 C 507.84375 275.339844 507.453125 274.949219 507.191406 274.496094 L 498.742188 258.765625 L 488.210938 258.765625 L 488.210938 274.496094 C 488.210938 274.949219 487.886719 275.339844 487.429688 275.339844 L 483.335938 275.339844 C 482.882812 275.339844 482.492188 274.949219 482.492188 274.496094 L 482.492188 230.75 C 482.492188 230.230469 482.816406 229.839844 483.335938 229.839844 L 501.210938 229.839844 C 507.257812 229.902344 512.914062 234.84375 512.914062 244.203125 C 512.914062 252.070312 509.011719 256.75 504.332031 257.984375 L 513.171875 274.429688 C 513.433594 274.949219 513.105469 275.339844 512.585938 275.339844 "/>
<path fill-rule="nonzero" fill="rgb(0%, 0%, 0%)" fill-opacity="1" d="M 557.894531 230.75 L 557.894531 274.496094 C 557.894531 275.015625 557.566406 275.339844 557.113281 275.339844 L 553.734375 275.339844 C 553.210938 275.339844 552.757812 275.015625 552.433594 274.496094 L 527.796875 240.5 L 527.796875 274.496094 C 527.796875 275.015625 527.535156 275.339844 527.082031 275.339844 L 522.921875 275.339844 C 522.402344 275.339844 522.078125 275.015625 522.078125 274.496094 L 522.078125 230.75 C 522.078125 230.230469 522.464844 229.839844 522.921875 229.839844 L 526.429688 229.839844 C 526.886719 229.839844 527.40625 230.230469 527.730469 230.8125 L 552.171875 264.550781 L 552.171875 230.75 C 552.171875 230.230469 552.433594 229.839844 552.886719 229.839844 L 557.113281 229.839844 C 557.566406 229.839844 557.894531 230.230469 557.894531 230.75 "/>
<path fill-rule="nonzero" fill="rgb(0%, 0%, 0%)" fill-opacity="1" d="M 324.6875 329.648438 L 324.6875 332.960938 C 324.6875 333.480469 324.363281 333.871094 323.84375 333.871094 L 299.46875 333.871094 C 299.011719 333.871094 298.558594 333.480469 298.558594 332.960938 L 298.558594 289.34375 C 298.558594 288.757812 298.882812 288.371094 299.402344 288.371094 L 303.5625 288.371094 C 304.019531 288.371094 304.277344 288.757812 304.277344 289.34375 L 304.277344 328.738281 L 323.84375 328.738281 C 324.363281 328.738281 324.6875 329.125 324.6875 329.648438 "/>
<path fill-rule="nonzero" fill="rgb(0%, 0%, 0%)" fill-opacity="1" d="M 345.875 332.960938 L 345.875 289.277344 C 345.875 288.757812 346.203125 288.371094 346.722656 288.371094 L 350.882812 288.371094 C 351.335938 288.371094 351.597656 288.757812 351.597656 289.277344 L 351.597656 332.960938 C 351.597656 333.480469 351.335938 333.871094 350.882812 333.871094 L 346.722656 333.871094 C 346.203125 333.871094 345.875 333.480469 345.875 332.960938 "/>
<path fill-rule="nonzero" fill="rgb(0%, 0%, 0%)" fill-opacity="1" d="M 411.332031 289.28125 L 393.71875 333.09375 C 393.519531 333.609375 393.328125 333.871094 392.808594 333.871094 L 391.117188 333.871094 C 390.664062 333.871094 390.402344 333.609375 390.207031 333.09375 L 372.65625 289.28125 C 372.460938 288.757812 372.785156 288.371094 373.308594 288.371094 L 377.53125 288.371094 C 378.050781 288.371094 378.3125 288.757812 378.507812 289.28125 L 391.960938 323.992188 L 405.417969 289.28125 C 405.613281 288.757812 405.871094 288.371094 406.328125 288.371094 L 410.617188 288.371094 C 411.074219 288.371094 411.527344 288.757812 411.332031 289.28125 "/>
<path fill-rule="nonzero" fill="rgb(0%, 0%, 0%)" fill-opacity="1" d="M 432.328125 332.960938 L 432.328125 289.277344 C 432.328125 288.757812 432.652344 288.371094 433.171875 288.371094 L 437.332031 288.371094 C 437.785156 288.371094 438.046875 288.757812 438.046875 289.277344 L 438.046875 332.960938 C 438.046875 333.480469 437.785156 333.871094 437.332031 333.871094 L 433.171875 333.871094 C 432.652344 333.871094 432.328125 333.480469 432.328125 332.960938 "/>
<path fill-rule="nonzero" fill="rgb(0%, 0%, 0%)" fill-opacity="1" d="M 497.066406 289.28125 L 497.066406 333.027344 C 497.066406 333.546875 496.742188 333.871094 496.289062 333.871094 L 492.90625 333.871094 C 492.386719 333.871094 491.933594 333.546875 491.605469 333.027344 L 466.96875 299.03125 L 466.96875 333.027344 C 466.96875 333.546875 466.710938 333.871094 466.253906 333.871094 L 462.09375 333.871094 C 461.578125 333.871094 461.25 333.546875 461.25 333.027344 L 461.25 289.28125 C 461.25 288.757812 461.640625 288.371094 462.09375 288.371094 L 465.605469 288.371094 C 466.0625 288.371094 466.582031 288.757812 466.90625 289.34375 L 491.347656 323.082031 L 491.347656 289.28125 C 491.347656 288.757812 491.605469 288.371094 492.0625 288.371094 L 496.289062 288.371094 C 496.742188 288.371094 497.066406 288.757812 497.066406 289.28125 "/>
<path fill-rule="nonzero" fill="rgb(0%, 0%, 0%)" fill-opacity="1" d="M 557.972656 311.835938 L 557.972656 328.28125 C 557.972656 328.539062 557.84375 328.734375 557.648438 328.933594 C 554.980469 331.660156 547.570312 334.390625 541.007812 334.390625 C 528.980469 334.390625 518.449219 325.097656 518.449219 311.1875 C 518.449219 297.078125 529.175781 287.847656 541.265625 287.847656 C 549.523438 287.847656 555.175781 292.203125 557.777344 295.324219 C 558.101562 295.714844 558.101562 296.167969 557.710938 296.558594 L 554.980469 299.289062 C 554.65625 299.613281 554.136719 299.679688 553.746094 299.226562 C 552.773438 297.792969 548.414062 292.984375 541.007812 292.984375 C 531.0625 292.984375 524.300781 301.433594 524.234375 311.1875 C 524.171875 320.742188 530.671875 329.257812 541.007812 329.257812 C 545.363281 329.257812 549.78125 327.695312 552.25 325.550781 L 552.25 315.996094 L 544.257812 315.996094 C 543.738281 315.996094 543.347656 315.671875 543.347656 315.214844 L 543.347656 311.835938 C 543.347656 311.382812 543.738281 311.054688 544.257812 311.054688 L 557.125 311.054688 C 557.582031 311.054688 557.972656 311.382812 557.972656 311.835938 "/>
<path fill-rule="nonzero" fill="rgb(0%, 0%, 0%)" fill-opacity="1" d="M 273.652344 309.222656 C 273.652344 309.792969 273.246094 310.28125 272.675781 310.28125 L 243.3125 310.28125 C 242.664062 310.28125 242.339844 309.871094 242.339844 309.304688 L 242.339844 281.652344 L 248.023438 268.984375 L 248.023438 305.164062 L 272.675781 305.164062 C 273.246094 305.164062 273.652344 305.652344 273.652344 306.21875 Z M 221.632812 310.28125 L 221.148438 310.28125 C 220.578125 310.28125 220.253906 309.953125 219.925781 309.222656 L 200.441406 267.164062 L 200.441406 309.304688 C 200.441406 309.871094 200.035156 310.28125 199.464844 310.28125 L 195.652344 310.28125 C 195 310.28125 194.757812 309.871094 194.757812 309.304688 L 194.757812 254.496094 C 194.757812 253.929688 195.246094 253.441406 195.8125 253.441406 L 198.898438 253.441406 C 199.546875 253.441406 199.953125 254.011719 200.28125 254.660156 L 221.308594 300.535156 L 242.582031 254.660156 C 242.90625 254.011719 243.394531 253.441406 243.964844 253.441406 L 247.046875 253.441406 C 247.699219 253.441406 248.023438 253.929688 248.023438 254.496094 L 242.339844 267.164062 L 222.769531 309.222656 C 222.445312 309.953125 222.121094 310.28125 221.632812 310.28125 M 182.164062 333.902344 L 286.246094 333.902344 L 286.246094 229.820312 L 182.164062 229.820312 Z M 182.164062 333.902344 "/>
<path fill-rule="nonzero" fill="rgb(0%, 0%, 0%)" fill-opacity="1" d="M 447.441406 356.316406 L 447.441406 363.859375 C 447.441406 363.976562 447.378906 364.066406 447.289062 364.15625 C 446.042969 365.410156 442.574219 366.660156 439.5 366.660156 C 433.871094 366.660156 428.941406 362.398438 428.941406 356.015625 C 428.941406 349.546875 433.960938 345.3125 439.621094 345.3125 C 443.484375 345.3125 446.132812 347.308594 447.351562 348.742188 C 447.503906 348.917969 447.503906 349.128906 447.320312 349.308594 L 446.042969 350.558594 C 445.890625 350.710938 445.644531 350.738281 445.460938 350.53125 C 445.007812 349.875 442.96875 347.667969 439.5 347.667969 C 434.84375 347.667969 431.679688 351.542969 431.648438 356.015625 C 431.621094 360.398438 434.664062 364.304688 439.5 364.304688 C 441.539062 364.304688 443.609375 363.589844 444.765625 362.605469 L 444.765625 358.222656 L 441.019531 358.222656 C 440.777344 358.222656 440.59375 358.074219 440.59375 357.867188 L 440.59375 356.316406 C 440.59375 356.105469 440.777344 355.957031 441.019531 355.957031 L 447.042969 355.957031 C 447.257812 355.957031 447.441406 356.105469 447.441406 356.316406 "/>
<path fill-rule="nonzero" fill="rgb(0%, 0%, 0%)" fill-opacity="1" d="M 461.917969 356.464844 L 466.847656 356.464844 C 469.28125 356.464844 470.769531 355.152344 470.769531 352.199219 C 470.769531 349.246094 469.28125 347.90625 467.058594 347.90625 L 461.917969 347.90625 Z M 473.328125 366.421875 L 471.347656 366.421875 C 471.105469 366.421875 470.921875 366.242188 470.800781 366.035156 L 466.847656 358.820312 L 461.917969 358.820312 L 461.917969 366.035156 C 461.917969 366.242188 461.765625 366.421875 461.550781 366.421875 L 459.636719 366.421875 C 459.421875 366.421875 459.238281 366.242188 459.238281 366.035156 L 459.238281 345.96875 C 459.238281 345.730469 459.390625 345.550781 459.636719 345.550781 L 468.003906 345.550781 C 470.832031 345.582031 473.480469 347.847656 473.480469 352.140625 C 473.480469 355.746094 471.652344 357.894531 469.460938 358.460938 L 473.601562 366.003906 C 473.722656 366.242188 473.570312 366.421875 473.328125 366.421875 "/>
<path fill-rule="nonzero" fill="rgb(0%, 0%, 0%)" fill-opacity="1" d="M 502.226562 356.015625 C 502.226562 351.695312 499.152344 347.699219 494.375 347.699219 C 489.628906 347.699219 486.527344 351.664062 486.527344 356.015625 C 486.527344 360.371094 489.628906 364.304688 494.375 364.304688 C 499.152344 364.304688 502.226562 360.339844 502.226562 356.015625 M 483.816406 356.015625 C 483.816406 350.113281 488.382812 345.3125 494.40625 345.3125 C 500.398438 345.3125 504.933594 350.113281 504.933594 356.015625 C 504.933594 361.890625 500.398438 366.660156 494.40625 366.660156 C 488.382812 366.660156 483.816406 361.890625 483.816406 356.015625 "/>
<path fill-rule="nonzero" fill="rgb(0%, 0%, 0%)" fill-opacity="1" d="M 532.550781 345.996094 L 532.550781 358.222656 C 532.550781 362.933594 529.964844 366.660156 524.214844 366.660156 C 518.464844 366.660156 515.878906 362.933594 515.878906 358.222656 L 515.878906 345.996094 C 515.878906 345.730469 516.0625 345.550781 516.304688 345.550781 L 518.160156 345.550781 C 518.40625 345.550781 518.558594 345.730469 518.558594 345.996094 L 518.558594 357.773438 C 518.558594 361.949219 520.59375 364.304688 524.214844 364.304688 C 527.835938 364.304688 529.875 361.949219 529.875 357.773438 L 529.875 345.996094 C 529.875 345.761719 530.058594 345.550781 530.269531 345.550781 L 532.15625 345.550781 C 532.367188 345.550781 532.550781 345.730469 532.550781 345.996094 "/>
<path fill-rule="nonzero" fill="rgb(0%, 0%, 0%)" fill-opacity="1" d="M 555.304688 352.378906 C 555.304688 349.425781 553.964844 347.90625 551.410156 347.90625 L 546.878906 347.90625 L 546.878906 356.820312 L 551.289062 356.820312 C 554.363281 356.820312 555.304688 354.882812 555.304688 352.378906 M 552.050781 359.175781 L 546.878906 359.175781 L 546.878906 366.035156 C 546.878906 366.273438 546.753906 366.421875 546.542969 366.421875 L 544.59375 366.421875 C 544.351562 366.421875 544.199219 366.273438 544.199219 366.035156 L 544.199219 345.96875 C 544.199219 345.730469 544.382812 345.550781 544.625 345.550781 L 552.140625 345.550781 C 555.304688 345.550781 558.011719 347.519531 558.011719 352.378906 C 558.011719 357.117188 555.121094 359.175781 552.050781 359.175781 "/>
<path fill-rule="nonzero" fill="rgb(0%, 0%, 0%)" fill-opacity="1" d="M 413.296875 357.539062 L 182.160156 357.539062 L 182.160156 354.433594 L 413.296875 354.433594 Z M 413.296875 357.539062 "/>
</svg>
